<?xml version="1.0" encoding="UTF-8" standalone="no"?><svg xmlns="http://www.w3.org/2000/svg" xmlns:xlink="http://www.w3.org/1999/xlink" contentStyleType="text/css" height="501px" preserveAspectRatio="none" style="width:1360px;height:501px;background:#FFFFFF;" version="1.1" viewBox="0 0 1360 501" width="1360px" zoomAndPan="magnify"><defs/><g><text fill="#000000" font-family="sans-serif" font-size="14" font-weight="bold" lengthAdjust="spacing" textLength="331" x="507.75" y="24.9659">Mar1 Hotel System (MHS) Backend Architecture</text><!--cluster Backend--><g id="cluster_Backend"><rect fill="none" height="448.38" rx="2.5" ry="2.5" style="stroke:#181818;stroke-width:1.0;" width="653" x="230.5" y="47.0679"/><text fill="#000000" font-family="sans-serif" font-size="14" font-weight="bold" lengthAdjust="spacing" textLength="101" x="506.5" y="64.0339">Backend Layer</text></g><!--cluster DM--><g id="cluster_DM"><path d="M632,109.0679 L734,109.0679 A3.75,3.75 0 0 1 736.5,111.5679 L743.5,134.1358 L841,134.1358 A2.5,2.5 0 0 1 843.5,136.6358 L843.5,215.6379 A2.5,2.5 0 0 1 841,218.1379 L632,218.1379 A2.5,2.5 0 0 1 629.5,215.6379 L629.5,111.5679 A2.5,2.5 0 0 1 632,109.0679 " fill="none" style="stroke:#000000;stroke-width:1.5;"/><line style="stroke:#000000;stroke-width:1.5;" x1="629.5" x2="743.5" y1="134.1358" y2="134.1358"/><text fill="#000000" font-family="sans-serif" font-size="14" font-weight="bold" lengthAdjust="spacing" textLength="101" x="633.5" y="126.0339">Domain Model</text></g><!--cluster Service--><g id="cluster_Service"><path d="M326,288.6779 L418,288.6779 A3.75,3.75 0 0 1 420.5,291.1779 L427.5,313.7458 L578,313.7458 A2.5,2.5 0 0 1 580.5,316.2458 L580.5,383.8779 A2.5,2.5 0 0 1 578,386.3779 L326,386.3779 A2.5,2.5 0 0 1 323.5,383.8779 L323.5,291.1779 A2.5,2.5 0 0 1 326,288.6779 " fill="none" style="stroke:#000000;stroke-width:1.5;"/><line style="stroke:#000000;stroke-width:1.5;" x1="323.5" x2="427.5" y1="313.7458" y2="313.7458"/><text fill="#000000" font-family="sans-serif" font-size="14" font-weight="bold" lengthAdjust="spacing" textLength="91" x="327.5" y="305.6439">Service Layer</text></g><!--cluster Controller--><g id="cluster_Controller"><path d="M623,288.6779 L736,288.6779 A3.75,3.75 0 0 1 738.5,291.1779 L745.5,313.7458 L841,313.7458 A2.5,2.5 0 0 1 843.5,316.2458 L843.5,383.8779 A2.5,2.5 0 0 1 841,386.3779 L623,386.3779 A2.5,2.5 0 0 1 620.5,383.8779 L620.5,291.1779 A2.5,2.5 0 0 1 623,288.6779 " fill="none" style="stroke:#000000;stroke-width:1.5;"/><line style="stroke:#000000;stroke-width:1.5;" x1="620.5" x2="745.5" y1="313.7458" y2="313.7458"/><text fill="#000000" font-family="sans-serif" font-size="14" font-weight="bold" lengthAdjust="spacing" textLength="112" x="624.5" y="305.6439">Controller Layer</text></g><!--cluster Frontend--><g id="cluster_Frontend"><rect fill="none" height="197.14" rx="2.5" ry="2.5" style="stroke:#181818;stroke-width:1.0;" width="246" x="923.5" y="51.5379"/><text fill="#000000" font-family="sans-serif" font-size="14" font-weight="bold" lengthAdjust="spacing" textLength="152" x="970.5" y="68.5039">Client/Frontend Layer</text></g><!--cluster UI--><g id="cluster_UI"><polygon fill="none" points="963.5,115.5379,973.5,105.5379,1137.5,105.5379,1137.5,206.6779,1127.5,216.6779,963.5,216.6779,963.5,115.5379" style="stroke:#181818;stroke-width:1.0;"/><line style="stroke:#181818;stroke-width:1.0;" x1="1127.5" x2="1137.5" y1="115.5379" y2="105.5379"/><line style="stroke:#181818;stroke-width:1.0;" x1="963.5" x2="1127.5" y1="115.5379" y2="115.5379"/><line style="stroke:#181818;stroke-width:1.0;" x1="1127.5" x2="1127.5" y1="115.5379" y2="216.6779"/><text fill="#000000" font-family="sans-serif" font-size="14" font-weight="bold" lengthAdjust="spacing" textLength="98" x="997.5" y="133.5039">User Interface</text></g><!--entity DAO--><g id="elem_DAO"><polygon fill="#F1F1F1" points="392.5,160.0679,402.5,150.0679,602.5,150.0679,602.5,189.1358,592.5,199.1358,392.5,199.1358,392.5,160.0679" style="stroke:#181818;stroke-width:0.5;"/><line style="stroke:#181818;stroke-width:0.5;" x1="592.5" x2="602.5" y1="160.0679" y2="150.0679"/><line style="stroke:#181818;stroke-width:0.5;" x1="392.5" x2="592.5" y1="160.0679" y2="160.0679"/><line style="stroke:#181818;stroke-width:0.5;" x1="592.5" x2="592.5" y1="160.0679" y2="199.1358"/><text fill="#000000" font-family="sans-serif" font-size="14" lengthAdjust="spacing" textLength="170" x="407.5" y="185.0339">Data Access Object (DAO)</text></g><!--entity DTO--><g id="elem_DTO"><polygon fill="#F1F1F1" points="395,432.3779,405,422.3779,616,422.3779,616,461.4458,606,471.4458,395,471.4458,395,432.3779" style="stroke:#181818;stroke-width:0.5;"/><line style="stroke:#181818;stroke-width:0.5;" x1="606" x2="616" y1="432.3779" y2="422.3779"/><line style="stroke:#181818;stroke-width:0.5;" x1="395" x2="606" y1="432.3779" y2="432.3779"/><line style="stroke:#181818;stroke-width:0.5;" x1="606" x2="606" y1="432.3779" y2="471.4458"/><text fill="#000000" font-family="sans-serif" font-size="14" lengthAdjust="spacing" textLength="181" x="410" y="457.3439">Data Transfer Object (DTO)</text></g><!--entity DB--><g id="elem_DB"><path d="M274,160.5679 C274,150.5679 315.5,150.5679 315.5,150.5679 C315.5,150.5679 357,150.5679 357,160.5679 L357,188.6358 C357,198.6358 315.5,198.6358 315.5,198.6358 C315.5,198.6358 274,198.6358 274,188.6358 L274,160.5679 " fill="#FFFF00" style="stroke:#181818;stroke-width:0.5;"/><path d="M274,160.5679 C274,170.5679 315.5,170.5679 315.5,170.5679 C315.5,170.5679 357,170.5679 357,160.5679 " fill="none" style="stroke:#181818;stroke-width:0.5;"/><text fill="#000000" font-family="sans-serif" font-size="14" lengthAdjust="spacing" textLength="63" x="284" y="189.5339">Database</text></g><!--entity DM_C--><g id="elem_DM_C"><path d="M672.5,157.5679 L672.5,191.6358 A2.5,2.5 0 0 0 675,194.1358 L740,194.1358 A2.5,2.5 0 0 0 742.5,191.6358 L742.5,165.0679 L732.5,155.0679 L675,155.0679 A2.5,2.5 0 0 0 672.5,157.5679 " fill="#F1F1F1" style="stroke:#181818;stroke-width:0.5;"/><path d="M732.5,155.0679 L732.5,162.5679 A2.5,2.5 0 0 0 735,165.0679 L742.5,165.0679 " fill="#F1F1F1" style="stroke:#181818;stroke-width:0.5;"/><text fill="#000000" font-family="sans-serif" font-size="14" lengthAdjust="spacing" textLength="50" x="682.5" y="180.0339">Classes</text></g><!--entity DM_JPA--><g id="elem_DM_JPA"><polygon fill="#F1F1F1" points="819.5,174.6079,809,160.0679,788,160.0679,777.5,174.6079,788,189.1379,809,189.1379,819.5,174.6079" style="stroke:#181818;stroke-width:0.5;"/><text fill="#000000" font-family="sans-serif" font-size="14" lengthAdjust="spacing" textLength="21" x="788" y="180.0339">JPA</text></g><g id="elem_SN"><path d="M367,334.6779 L367,362.3839 L556,362.3839 L556,344.6779 L546,334.6779 L367,334.6779 " fill="#FEFFDD" style="stroke:#181818;stroke-width:0.5;"/><path d="M546,334.6779 L546,344.6779 L556,344.6779 L546,334.6779 " fill="#FEFFDD" style="stroke:#181818;stroke-width:1.0;"/><text fill="#000000" font-family="sans-serif" font-size="13" lengthAdjust="spacing" textLength="168" x="373" y="353.5749">"Service Classes &amp; Methods"</text></g><g id="elem_CN"><path d="M664,334.6779 L664,362.3839 L819,362.3839 L819,344.6779 L809,334.6779 L664,334.6779 " fill="#FEFFDD" style="stroke:#181818;stroke-width:0.5;"/><path d="M809,334.6779 L809,344.6779 L819,344.6779 L809,334.6779 " fill="#FEFFDD" style="stroke:#181818;stroke-width:1.0;"/><text fill="#000000" font-family="sans-serif" font-size="13" lengthAdjust="spacing" textLength="134" x="670" y="353.5749">"Controller Endpoints"</text></g><!--entity VueJS--><g id="elem_VueJS"><rect fill="#90EE90" height="52.1358" rx="2.5" ry="2.5" style="stroke:#181818;stroke-width:0.5;" width="127" x="987" y="148.5379"/><text fill="#000000" font-family="sans-serif" font-size="14" lengthAdjust="spacing" textLength="37" x="997" y="166.5039">VueJS</text><line style="stroke:#181818;stroke-width:1.0;" x1="988" x2="1113" y1="170.6058" y2="170.6058"/><text fill="#000000" font-family="sans-serif" font-size="14" lengthAdjust="spacing" textLength="107" x="997" y="189.5718">HTML | CSS | JS</text></g><!--entity HTTPRequest--><g id="elem_HTTPRequest"><polygon fill="#F1F1F1" points="16,146.5379,26,136.5379,203,136.5379,203,202.6738,193,212.6738,16,212.6738,16,146.5379" style="stroke:#181818;stroke-width:0.5;"/><line style="stroke:#181818;stroke-width:0.5;" x1="193" x2="203" y1="146.5379" y2="136.5379"/><line style="stroke:#181818;stroke-width:0.5;" x1="16" x2="193" y1="146.5379" y2="146.5379"/><line style="stroke:#181818;stroke-width:0.5;" x1="193" x2="193" y1="146.5379" y2="212.6738"/><text fill="#000000" font-family="sans-serif" font-size="14" font-weight="bold" lengthAdjust="spacing" textLength="96" x="35" y="171.5039">HTTP Request</text><line style="stroke:#181818;stroke-width:1.0;" x1="16" x2="193" y1="175.6058" y2="175.6058"/><line style="stroke:#181818;stroke-width:1.0;" x1="193" x2="203" y1="175.6058" y2="165.6058"/><text fill="#000000" font-family="sans-serif" font-size="14" lengthAdjust="spacing" textLength="147" x="31" y="194.5718">GET | POST /endpoint</text></g><!--entity HTTPResponse--><g id="elem_HTTPResponse"><polygon fill="#F1F1F1" points="1193.5,146.5379,1203.5,136.5379,1343.5,136.5379,1343.5,202.6738,1333.5,212.6738,1193.5,212.6738,1193.5,146.5379" style="stroke:#181818;stroke-width:0.5;"/><line style="stroke:#181818;stroke-width:0.5;" x1="1333.5" x2="1343.5" y1="146.5379" y2="136.5379"/><line style="stroke:#181818;stroke-width:0.5;" x1="1193.5" x2="1333.5" y1="146.5379" y2="146.5379"/><line style="stroke:#181818;stroke-width:0.5;" x1="1333.5" x2="1333.5" y1="146.5379" y2="212.6738"/><text fill="#000000" font-family="sans-serif" font-size="14" font-weight="bold" lengthAdjust="spacing" textLength="106" x="1212.5" y="171.5039">HTTP Response</text><line style="stroke:#181818;stroke-width:1.0;" x1="1193.5" x2="1333.5" y1="175.6058" y2="175.6058"/><line style="stroke:#181818;stroke-width:1.0;" x1="1333.5" x2="1343.5" y1="175.6058" y2="165.6058"/><text fill="#000000" font-family="sans-serif" font-size="14" lengthAdjust="spacing" textLength="104" x="1208.5" y="194.5718">200 | 404 | 500</text></g><!--link DM_C to DM_JPA--><g id="link_DM_C_DM_JPA"><path d="M742.94,175.4479 C742.94,175.4479 771.23,175.4479 771.23,175.4479 " fill="none" id="DM_C-to-DM_JPA" style="stroke:#181818;stroke-width:1.0;"/><ellipse cx="770.23" cy="175.4479" fill="#FFFFFF" rx="6" ry="6" style="stroke:#181818;stroke-width:1.5;"/></g><!--reverse link DB to DAO--><g id="link_DB_DAO"><path d="M363.77,163.4479 C363.77,163.4479 392.33,163.4479 392.33,163.4479 " fill="none" id="DB-backto-DAO" style="stroke:#181818;stroke-width:1.0;"/><polygon fill="#181818" points="358.77,163.4479,367.77,167.4479,363.77,163.4479,367.77,159.4479,358.77,163.4479" style="stroke:#181818;stroke-width:1.0;"/></g><!--link DB to DAO--><g id="link_DB_DAO"><path d="M357.25,175.4479 C357.25,175.4479 385.81,175.4479 385.81,175.4479 " fill="none" id="DB-to-DAO" style="stroke:#181818;stroke-width:1.0;"/><polygon fill="#181818" points="390.81,175.4479,381.81,171.4479,385.81,175.4479,381.81,179.4479,390.81,175.4479" style="stroke:#181818;stroke-width:1.0;"/></g><!--reverse link DAO to DM--><g id="link_DAO_DM"><path d="M609.41,175.4479 C609.41,175.4479 616.39,175.4479 623.37,175.4479 C625.115,175.4479 626.86,175.4479 628.4959,175.4479 C628.7004,175.4479 628.9032,175.4479 629.1041,175.4479 C629.2045,175.4479 629.3045,175.4479 629.4039,175.4479 " fill="none" id="DAO-backto-DM" style="stroke:#181818;stroke-width:1.0;"/><polygon fill="#181818" points="604.41,175.4479,613.41,179.4479,609.41,175.4479,613.41,171.4479,604.41,175.4479" style="stroke:#181818;stroke-width:1.0;"/></g><!--reverse link DAO to Service--><g id="link_DAO_Service"><path d="M385.56,187.4479 C385.56,187.4479 362,187.4479 362,187.4479 C362,187.4479 362,227.9479 362,268.4479 C362,273.5104 362,278.5729 362,283.5563 C362,284.8022 362,286.0431 362,287.2778 C362,287.5865 362,287.8948 362,288.2027 " fill="none" id="DAO-backto-Service" style="stroke:#181818;stroke-width:1.0;"/><polygon fill="#181818" points="390.56,187.4479,381.56,183.4479,385.56,187.4479,381.56,191.4479,390.56,187.4479" style="stroke:#181818;stroke-width:1.0;"/><text fill="#000000" font-family="sans-serif" font-size="13" lengthAdjust="spacing" textLength="27" x="334" y="267.7749">uses</text></g><!--link DAO to Service--><g id="link_DAO_Service"><path d="M474.25,199.5579 C474.25,205.1379 474.25,209.4479 474.25,209.4479 C474.25,209.4479 331.5,209.4479 331.5,209.4479 C331.5,209.4479 331.5,242.0779 331.5,275.7279 C331.5,279.9342 331.5,284.1564 331.5,288.3327 " fill="none" id="DAO-to-Service" style="stroke:#181818;stroke-width:1.0;"/><polygon fill="#181818" points="331.5,288.3327,335.5,279.3327,331.5,283.3327,327.5,279.3327,331.5,288.3327" style="stroke:#181818;stroke-width:1.0;"/><text fill="#000000" font-family="sans-serif" font-size="13" lengthAdjust="spacing" textLength="74" x="263.48" y="224.3449">returns data</text></g><!--link Controller to Service--><g id="link_Controller_Service"><path d="M628.5,386.524 C628.5,390.1148 628.5,392.4479 628.5,392.4479 C628.5,392.4479 302.25,392.4479 302.25,392.4479 C302.25,392.4479 302.25,349.4479 302.25,349.4479 C302.25,349.4479 309.1125,349.4479 316.19,349.4479 C317.9594,349.4479 319.7422,349.4479 321.4346,349.4479 C321.8577,349.4479 322.2751,349.4479 322.6853,349.4479 C322.8904,349.4479 323.0936,349.4479 323.2949,349.4479 C323.3452,349.4479 323.3954,349.4479 323.4454,349.4479 " fill="none" id="Controller-to-Service" style="stroke:#181818;stroke-width:1.0;"/><polygon fill="#181818" points="323.4454,349.4479,314.4454,345.4479,318.4454,349.4479,314.4454,353.4479,323.4454,349.4479" style="stroke:#181818;stroke-width:1.0;"/></g><!--link Service to DTO--><g id="link_Service_DTO"><path d="M331.5,386.6415 C331.5,386.8213 331.5,387.0013 331.5,387.1814 C331.5,387.5418 331.5,387.903 331.5,388.2649 C331.5,389.7124 331.5,391.1716 331.5,392.6371 C331.5,395.568 331.5,398.5243 331.5,401.4642 C331.5,424.9829 331.5,447.4479 331.5,447.4479 C331.5,447.4479 360.49,447.4479 394.81,447.4479 " fill="none" id="Service-DTO" style="stroke:#181818;stroke-width:1.0;"/><text fill="#000000" font-family="sans-serif" font-size="13" lengthAdjust="spacing" textLength="44" x="286.5" y="425.8549">returns</text></g><!--link DTO to Controller--><g id="link_DTO_Controller"><path d="M609.25,422.0679 C609.25,393.1879 609.25,349.4479 609.25,349.4479 C609.25,349.4479 613.7675,349.4479 618.425,349.4479 C619.0072,349.4479 619.5916,349.4479 620.1696,349.4479 C620.2418,349.4479 620.314,349.4479 620.386,349.4479 C620.422,349.4479 620.458,349.4479 620.494,349.4479 " fill="none" id="DTO-to-Controller" style="stroke:#181818;stroke-width:1.0;"/><polygon fill="#181818" points="620.494,349.4479,611.494,345.4479,615.494,349.4479,611.494,353.4479,620.494,349.4479" style="stroke:#181818;stroke-width:1.0;"/></g><!--link HTTPRequest to Frontend--><g id="link_HTTPRequest_Frontend"><path d="M203.39,205.4479 C311.23,205.4479 493.2575,205.4479 648.325,205.4479 C725.8587,205.4479 796.6525,205.4479 848.0628,205.4479 C873.768,205.4479 894.6273,205.4479 909.0603,205.4479 C912.6685,205.4479 915.8751,205.4479 918.6554,205.4479 C920.0455,205.4479 921.3291,205.4479 922.503,205.4479 C922.7964,205.4479 923.0831,205.4479 923.3628,205.4479 " fill="none" id="HTTPRequest-Frontend" style="stroke:#181818;stroke-width:1.0;"/></g><!--reverse link Backend to HTTPRequest--><g id="link_Backend_HTTPRequest"><path d="M230.4412,175.4479 C230.3986,175.4479 230.356,175.4479 230.3132,175.4479 C230.1419,175.4479 229.9683,175.4479 229.7924,175.4479 C229.0889,175.4479 228.3486,175.4479 227.5738,175.4479 C221.375,175.4479 212.965,175.4479 203.47,175.4479 " fill="none" id="Backend-backto-HTTPRequest" style="stroke:#181818;stroke-width:1.0;"/><polygon fill="#181818" points="230.4412,175.4479,221.4412,171.4479,225.4412,175.4479,221.4412,179.4479,230.4412,175.4479" style="stroke:#181818;stroke-width:1.0;"/></g><!--link Backend to HTTPResponse--><g id="link_Backend_HTTPResponse"><path d="M886.165,141.4479 C892.6778,141.4479 899.1603,141.4479 905.6078,141.4479 C918.5028,141.4479 931.2581,141.4479 943.837,141.4479 C1044.4688,141.4479 1133.8175,141.4479 1193.18,141.4479 " fill="none" id="Backend-HTTPResponse" style="stroke:#181818;stroke-width:1.0;"/></g><!--link HTTPResponse to Frontend--><g id="link_HTTPResponse_Frontend"><path d="M1193.29,145.4479 C1187.0825,145.4479 1180.6283,145.4479 1173.9825,145.4479 C1173.1518,145.4479 1172.3181,145.4479 1171.4815,145.4479 C1171.0632,145.4479 1170.6442,145.4479 1170.2245,145.4479 " fill="none" id="HTTPResponse-to-Frontend" style="stroke:#181818;stroke-width:1.0;"/><polygon fill="#181818" points="1170.2245,145.4479,1179.2245,149.4479,1175.2245,145.4479,1179.2245,141.4479,1170.2245,145.4479" style="stroke:#181818;stroke-width:1.0;"/></g><!--SRC=[TPJVRzCm4CVVyrUSCebj3z426Yy8JUhQiMvgQRMaI0XDo4skhPbh1zjbLC3_pjbnVWdcXoI- -_XxPzyvbbk14C-PVWrJPL50TZGMzt0sdsRdSCsA9vGbZ7InunOBUz0OHwUmCbnkOIcOjAlv32PO2NNSexGmuMohsJxI13Ev9V56Wnc8c-yPEwAEuLSK0OsIMRPc1c5oxQb9cCTmyXc5KCy4EkvFZKjL4ZfQj2oCYWADWSNw6qM5C_ATnpLRKK2s9NnUqshFk8GvAOWugBgnuS8nNyUU6Wjc39guTU_m9zigwOZxvSWpzExyVcMI1dy_roP-Xle7Bz0lRRxRGsXa91N04Td7rjJ28ITu1NEqErNsidC7wfR-B-vOIQkL4AZhdNNJ5wEFUz5x_8qiAyMbVJbmLvkyLvjSCsas9D1M9tVLSR1_dC832cQvacR7A-DjhhY9m8rDhbnFrBPhI3JVxhnjjAYtIMLjELfJ6viZImvLiB-3-D0Mr8kNwbcIiq49q4ZDBOrlnj0ylTrtx314uZVRBGyXo9RGaauWehfqL-A39aTp9yQ2qyMvQ6s3mlZpNDrvS6KeaJk2z8OLs2zTmNG9dmvudy79p9tHhKQKyAK5tF3-WIL9ai5ycjDT_WtZBADdZtqC1QOz-7ocURvymEy7D3R4UB- -ybO8vgWlVtkJazvoaULmWQ6BeiU1bgce_FYlM6qVgBr9KrAxJ2_f-JPDIQWzkReL-kb5_LIRJWa_eQZv6OMs6gGI3V9g6wy95K5adhYi6FtgOCObscE5e3JTpBy0]--></g></svg>